<?xml version="1.0" encoding="UTF-8"?>
<!DOCTYPE svg PUBLIC "-//W3C//DTD SVG 1.1//EN" "http://www.w3.org/Graphics/SVG/1.1/DTD/svg11.dtd">
<svg version="1.1" xmlns="http://www.w3.org/2000/svg" xmlns:xlink="http://www.w3.org/1999/xlink" x="0" y="0" width="460" height="256" viewBox="0, 0, 460, 256">
  <defs>
    <linearGradient id="Gradient_1" gradientUnits="userSpaceOnUse" x1="119" y1="231.923" x2="341" y2="24.077">
      <stop offset="0" stop-color="#6DB7FF"/>
      <stop offset="1" stop-color="#88DEFF"/>
    </linearGradient>
  </defs>
  <g id="Layer_1">
    <path d="M-0,-0 L4,-0 L4,4 L-0,4 L-0,-0 z M456,252 L456,256 L460,256 L460,252 L456,252 z" fill="#FFFFFF" fill-opacity="0.006"/>
    <path d="M8.934,185.156 L238.595,185.156 L238.595,248 L82.598,248 L73.041,247.951 L81.615,248 C49.388,247.449 21.147,227.053 11.204,196.268 C10.042,192.671 9.691,188.86 8.934,185.156 z M451.871,185.156 L251.339,185.156 L251.339,248 L384.182,248 L390.554,247.399 C394.736,246.548 399.027,246.119 403.099,244.844 C429.771,235.28 448.263,213.49 451.871,185.156 z M397.073,109.47 L395.343,109.138 L360.084,109.138 L360.084,172.43 L452,172.43 C449.189,141.15 426.699,117.499 397.073,109.47 z M49.526,109.138 C25.4,119.744 9.117,146.026 8,172.43 L129.85,172.43 L129.85,109.138 L49.526,109.138 z M347.34,109.138 L142.594,109.138 L142.594,172.43 L347.34,172.43 L347.34,109.138 z M304.004,24.794 L299.545,24.689 C282.484,25.485 265.375,28.706 251.508,38.54 L251.339,38.324 L251.339,96.412 L385.634,96.412 C381.325,57.166 346.16,27.484 304.004,24.794 z M167.476,8 L167.476,8 C111.299,8 65.759,45.249 65.759,91.196 C65.809,92.935 65.792,94.679 65.99,96.412 L238.595,96.412 L238.595,33.862 C218.757,18.79 196.466,8.179 167.476,8 z" fill="url(#Gradient_1)"/>
  </g>
</svg>
